<svg width="290" height="115" viewBox="0 0 290 115" fill="none" xmlns="http://www.w3.org/2000/svg">
<g filter="url(#filter0_dii_2_54)">
<path d="M213.355 93.0909C214.583 93.0909 215.66 92.6982 217.095 91.8695L250.754 72.2591C253.189 70.8631 254.364 69.5979 254.364 67.6019C254.364 65.6168 253.189 64.3625 250.754 62.9447L217.095 43.3561C215.66 42.5272 214.583 42.1236 213.355 42.1236C210.909 42.1236 208.995 43.9887 208.995 47.0971V88.1285C208.995 91.215 210.909 93.0909 213.355 93.0909Z" fill="#DCDCDC"/>
<path d="M67.3182 40.7273V51.6364H35V40.7273H67.3182ZM42.3977 93.0909V36.9432C42.3977 33.1477 43.1364 30 44.6136 27.5C46.1136 25 48.1591 23.125 50.75 21.875C53.3409 20.625 56.2841 20 59.5795 20C61.8068 20 63.8409 20.1705 65.6818 20.5114C67.5455 20.8523 68.9318 21.1591 69.8409 21.4318L67.25 32.3409C66.6818 32.1591 65.9773 31.9886 65.1364 31.8295C64.3182 31.6705 63.4773 31.5909 62.6136 31.5909C60.4773 31.5909 58.9886 32.0909 58.1477 33.0909C57.3068 34.0682 56.8864 35.4432 56.8864 37.2159V93.0909H42.3977Z" fill="#DCDCDC"/>
<path d="M71.3903 93.0909V40.7273H85.2313V49.9659H85.8449C86.9358 46.8977 88.754 44.4773 91.2994 42.7045C93.8449 40.9318 96.8903 40.0455 100.436 40.0455C104.027 40.0455 107.084 40.9432 109.606 42.7386C112.129 44.5114 113.811 46.9205 114.652 49.9659H115.197C116.265 46.9659 118.197 44.5682 120.993 42.7727C123.811 40.9545 127.14 40.0455 130.981 40.0455C135.868 40.0455 139.834 41.6023 142.879 44.7159C145.947 47.8068 147.481 52.1932 147.481 57.875V93.0909H132.993V60.7386C132.993 57.8295 132.22 55.6477 130.674 54.1932C129.129 52.7386 127.197 52.0114 124.879 52.0114C122.243 52.0114 120.186 52.8523 118.709 54.5341C117.231 56.1932 116.493 58.3864 116.493 61.1136V93.0909H102.413V60.4318C102.413 57.8636 101.674 55.8182 100.197 54.2955C98.7426 52.7727 96.8222 52.0114 94.4358 52.0114C92.8222 52.0114 91.3676 52.4205 90.0722 53.2386C88.7994 54.0341 87.7881 55.1591 87.0381 56.6136C86.2881 58.0455 85.9131 59.7273 85.9131 61.6591V93.0909H71.3903Z" fill="#DCDCDC"/>
<path d="M177.812 94.1136C172.516 94.1136 167.937 92.9886 164.073 90.7386C160.232 88.4659 157.266 85.3068 155.176 81.2614C153.085 77.1932 152.039 72.4773 152.039 67.1136C152.039 61.7045 153.085 56.9773 155.176 52.9318C157.266 48.8636 160.232 45.7045 164.073 43.4545C167.937 41.1818 172.516 40.0455 177.812 40.0455C183.107 40.0455 187.676 41.1818 191.516 43.4545C195.38 45.7045 198.357 48.8636 200.448 52.9318C202.539 56.9773 203.585 61.7045 203.585 67.1136C203.585 72.4773 202.539 77.1932 200.448 81.2614C198.357 85.3068 195.38 88.4659 191.516 90.7386C187.676 92.9886 183.107 94.1136 177.812 94.1136ZM177.88 82.8636C180.289 82.8636 182.301 82.1818 183.914 80.8182C185.528 79.4318 186.744 77.5455 187.562 75.1591C188.403 72.7727 188.823 70.0568 188.823 67.0114C188.823 63.9659 188.403 61.25 187.562 58.8636C186.744 56.4773 185.528 54.5909 183.914 53.2045C182.301 51.8182 180.289 51.125 177.88 51.125C175.448 51.125 173.403 51.8182 171.744 53.2045C170.107 54.5909 168.869 56.4773 168.028 58.8636C167.21 61.25 166.801 63.9659 166.801 67.0114C166.801 70.0568 167.21 72.7727 168.028 75.1591C168.869 77.5455 170.107 79.4318 171.744 80.8182C173.403 82.1818 175.448 82.8636 177.88 82.8636Z" fill="#DCDCDC"/>
</g>
<defs>
<filter id="filter0_dii_2_54" x="31" y="20" width="227.364" height="82.1136" filterUnits="userSpaceOnUse" color-interpolation-filters="sRGB">
<feFlood flood-opacity="0" result="BackgroundImageFix"/>
<feColorMatrix in="SourceAlpha" type="matrix" values="0 0 0 0 0 0 0 0 0 0 0 0 0 0 0 0 0 0 127 0" result="hardAlpha"/>
<feOffset dy="4"/>
<feGaussianBlur stdDeviation="2"/>
<feComposite in2="hardAlpha" operator="out"/>
<feColorMatrix type="matrix" values="0 0 0 0 0 0 0 0 0 0 0 0 0 0 0 0 0 0 0.25 0"/>
<feBlend mode="normal" in2="BackgroundImageFix" result="effect1_dropShadow_2_54"/>
<feBlend mode="normal" in="SourceGraphic" in2="effect1_dropShadow_2_54" result="shape"/>
<feColorMatrix in="SourceAlpha" type="matrix" values="0 0 0 0 0 0 0 0 0 0 0 0 0 0 0 0 0 0 127 0" result="hardAlpha"/>
<feOffset dy="1"/>
<feComposite in2="hardAlpha" operator="arithmetic" k2="-1" k3="1"/>
<feColorMatrix type="matrix" values="0 0 0 0 1 0 0 0 0 1 0 0 0 0 1 0 0 0 0.25 0"/>
<feBlend mode="normal" in2="shape" result="effect2_innerShadow_2_54"/>
<feColorMatrix in="SourceAlpha" type="matrix" values="0 0 0 0 0 0 0 0 0 0 0 0 0 0 0 0 0 0 127 0" result="hardAlpha"/>
<feOffset dy="-0.5"/>
<feComposite in2="hardAlpha" operator="arithmetic" k2="-1" k3="1"/>
<feColorMatrix type="matrix" values="0 0 0 0 0 0 0 0 0 0 0 0 0 0 0 0 0 0 0.25 0"/>
<feBlend mode="normal" in2="effect2_innerShadow_2_54" result="effect3_innerShadow_2_54"/>
</filter>
</defs>
</svg>
