<svg width="959" height="340" viewBox="0 0 959 340" fill="none" xmlns="http://www.w3.org/2000/svg">
<g filter="url(#filter0_dii_2_54)">
<path d="M757.807 315.86C762.785 315.86 767.147 314.271 772.963 310.916L909.372 231.537C919.241 225.885 924 220.764 924 212.685C924 204.649 919.241 199.572 909.372 193.833L772.963 114.542C767.147 111.186 762.785 109.553 757.807 109.553C747.893 109.553 740.139 117.102 740.139 129.685V295.773C740.139 308.267 747.893 315.86 757.807 315.86Z" fill="#DCDCDC"/>
<path d="M165.974 103.901V148.059H35V103.901H165.974ZM64.9803 315.86V88.5833C64.9803 73.2199 67.9737 60.4784 73.9605 50.3588C80.0395 40.2392 88.329 32.6495 98.829 27.5897C109.329 22.5299 121.257 20 134.612 20C143.638 20 151.882 20.69 159.342 22.0699C166.895 23.4499 172.513 24.6918 176.197 25.7958L165.697 69.954C163.395 69.218 160.539 68.5281 157.132 67.8841C153.816 67.2401 150.408 66.9181 146.908 66.9181C138.25 66.9181 132.217 68.9421 128.809 72.9899C125.401 76.9457 123.697 82.5115 123.697 89.6872V315.86H64.9803Z" fill="#DCDCDC"/>
<path d="M182.477 315.86V103.901H238.569V141.297H241.056C245.477 128.878 252.845 119.08 263.161 111.904C273.477 104.729 285.819 101.141 300.187 101.141C314.74 101.141 327.128 104.775 337.352 112.042C347.575 119.218 354.391 128.97 357.799 141.297H360.01C364.339 129.154 372.167 119.448 383.496 112.18C394.917 104.821 408.411 101.141 423.977 101.141C443.779 101.141 459.852 107.443 472.194 120.046C484.628 132.558 490.845 150.313 490.845 173.312V315.86H432.128V184.903C432.128 173.128 428.996 164.296 422.733 158.408C416.47 152.521 408.641 149.577 399.246 149.577C388.562 149.577 380.227 152.981 374.24 159.788C368.253 166.504 365.26 175.382 365.26 186.421V315.86H308.2V183.661C308.2 173.266 305.207 164.986 299.22 158.822C293.325 152.659 285.542 149.577 275.871 149.577C269.332 149.577 263.437 151.233 258.187 154.545C253.029 157.764 248.931 162.318 245.891 168.206C242.852 174.002 241.332 180.81 241.332 188.629V315.86H182.477Z" fill="#DCDCDC"/>
<path d="M613.764 320C592.304 320 573.744 315.446 558.087 306.339C542.521 297.139 530.501 284.351 522.027 267.976C513.554 251.509 509.317 232.419 509.317 210.708C509.317 188.813 513.554 169.678 522.027 153.303C530.501 136.835 542.521 124.048 558.087 114.94C573.744 105.741 592.304 101.141 613.764 101.141C635.225 101.141 653.738 105.741 669.304 114.94C684.962 124.048 697.027 136.835 705.501 153.303C713.975 169.678 718.212 188.813 718.212 210.708C718.212 232.419 713.975 251.509 705.501 267.976C697.027 284.351 684.962 297.139 669.304 306.339C653.738 315.446 635.225 320 613.764 320ZM614.04 274.462C623.804 274.462 631.955 271.702 638.494 266.182C645.034 260.57 649.962 252.935 653.277 243.275C656.685 233.615 658.389 222.622 658.389 210.294C658.389 197.967 656.685 186.973 653.277 177.314C649.962 167.654 645.034 160.018 638.494 154.407C631.955 148.795 623.804 145.989 614.04 145.989C604.185 145.989 595.896 148.795 589.172 154.407C582.541 160.018 577.521 167.654 574.113 177.314C570.797 186.973 569.139 197.967 569.139 210.294C569.139 222.622 570.797 233.615 574.113 243.275C577.521 252.935 582.541 260.57 589.172 266.182C595.896 271.702 604.185 274.462 614.04 274.462Z" fill="#DCDCDC"/>
</g>
<defs>
<filter id="filter0_dii_2_54" x="31" y="20" width="897" height="308" filterUnits="userSpaceOnUse" color-interpolation-filters="sRGB">
<feFlood flood-opacity="0" result="BackgroundImageFix"/>
<feColorMatrix in="SourceAlpha" type="matrix" values="0 0 0 0 0 0 0 0 0 0 0 0 0 0 0 0 0 0 127 0" result="hardAlpha"/>
<feOffset dy="4"/>
<feGaussianBlur stdDeviation="2"/>
<feComposite in2="hardAlpha" operator="out"/>
<feColorMatrix type="matrix" values="0 0 0 0 0 0 0 0 0 0 0 0 0 0 0 0 0 0 0.25 0"/>
<feBlend mode="normal" in2="BackgroundImageFix" result="effect1_dropShadow_2_54"/>
<feBlend mode="normal" in="SourceGraphic" in2="effect1_dropShadow_2_54" result="shape"/>
<feColorMatrix in="SourceAlpha" type="matrix" values="0 0 0 0 0 0 0 0 0 0 0 0 0 0 0 0 0 0 127 0" result="hardAlpha"/>
<feOffset dy="1"/>
<feComposite in2="hardAlpha" operator="arithmetic" k2="-1" k3="1"/>
<feColorMatrix type="matrix" values="0 0 0 0 1 0 0 0 0 1 0 0 0 0 1 0 0 0 0.25 0"/>
<feBlend mode="normal" in2="shape" result="effect2_innerShadow_2_54"/>
<feColorMatrix in="SourceAlpha" type="matrix" values="0 0 0 0 0 0 0 0 0 0 0 0 0 0 0 0 0 0 127 0" result="hardAlpha"/>
<feOffset dy="-0.5"/>
<feComposite in2="hardAlpha" operator="arithmetic" k2="-1" k3="1"/>
<feColorMatrix type="matrix" values="0 0 0 0 0 0 0 0 0 0 0 0 0 0 0 0 0 0 0.25 0"/>
<feBlend mode="normal" in2="effect2_innerShadow_2_54" result="effect3_innerShadow_2_54"/>
</filter>
</defs>
</svg>
